<svg width="16" height="16" viewBox="0 0 16 16" fill="none" xmlns="http://www.w3.org/2000/svg">
<g clip-path="url(#clip0_7004_21055)">
<path fill-rule="evenodd" clip-rule="evenodd" d="M7.06069 14.5672L9.10474 9.98383C9.14068 9.89405 9.19455 9.81251 9.26295 9.74414C9.33136 9.67577 9.41294 9.62201 9.50276 9.58608L14.0882 7.54299C14.23 7.48244 14.3508 7.38163 14.4357 7.25306C14.5206 7.12449 14.5659 6.97381 14.5659 6.81975C14.5659 6.66569 14.5206 6.51504 14.4357 6.38647C14.3508 6.2579 14.23 6.15709 14.0882 6.09654L2.08624 1.57643C1.946 1.52298 1.79337 1.5112 1.6466 1.54255C1.49983 1.5739 1.3652 1.64703 1.25908 1.75311C1.15295 1.85919 1.07978 1.9937 1.04842 2.1404C1.01706 2.2871 1.02883 2.43974 1.08232 2.57991L5.60454 14.5763C5.66465 14.7203 5.76626 14.8432 5.89646 14.9293C6.02665 15.0155 6.17952 15.061 6.33565 15.06C6.49178 15.059 6.64408 15.0116 6.77319 14.9239C6.9023 14.8361 7.00238 14.712 7.06069 14.5672Z" fill="white"/>
</g>
<defs>
<clipPath id="clip0_7004_21055">
<rect width="15.2503" height="15.2503" fill="white" transform="translate(0.173828 0.66748)"/>
</clipPath>
</defs>
</svg>
