<svg width="16" height="16" viewBox="0 0 16 16" fill="none" xmlns="http://www.w3.org/2000/svg">
<g clip-path="url(#clip0_7004_21071)">
<path d="M10.4034 4.86595C10.5152 4.9529 10.5901 5.07884 10.6131 5.2186C10.6335 5.35631 10.5993 5.49655 10.5178 5.6094L6.94352 10.3751C6.89399 10.4437 6.82857 10.4993 6.75288 10.5371C6.67585 10.5752 6.59101 10.5948 6.50509 10.5943C6.38892 10.5931 6.27589 10.5565 6.18102 10.4895C6.12366 10.4449 6.07514 10.3899 6.03803 10.3274C5.99745 10.2675 5.97136 10.199 5.96179 10.1273C5.95225 10.0577 5.95225 9.98716 5.96179 9.91759C5.98386 9.84964 6.01599 9.7854 6.05711 9.72698L9.63139 4.96127C9.6749 4.9041 9.72932 4.85613 9.79149 4.82013C9.85366 4.78414 9.92235 4.76084 9.99359 4.75157H10.0794C10.1973 4.75145 10.3117 4.79182 10.4034 4.86595Z" fill="white"/>
<path d="M9.66775 8.50918C9.79532 8.45685 9.93197 8.43019 10.0699 8.43073C10.2077 8.43019 10.3444 8.45685 10.472 8.50918C10.5995 8.56152 10.7155 8.63852 10.8133 8.73575C10.9593 8.88261 11.0586 9.06943 11.0986 9.27264C11.1386 9.47586 11.1175 9.68637 11.038 9.87761C10.9584 10.0688 10.824 10.2323 10.6517 10.3472C10.4794 10.4621 10.277 10.5235 10.0699 10.5235C9.86274 10.5235 9.66028 10.4621 9.48799 10.3472C9.3157 10.2323 9.18129 10.0688 9.10177 9.87761C9.02224 9.68637 9.00114 9.47586 9.04112 9.27264C9.0811 9.06943 9.18037 8.88261 9.32641 8.73575C9.42418 8.63852 9.54018 8.56152 9.66775 8.50918Z" fill="white"/>
<path d="M7.23906 6.64836C7.43463 6.45034 7.5443 6.18323 7.5443 5.90491C7.5443 5.62659 7.43463 5.35948 7.23906 5.16146C7.04104 4.96588 6.77393 4.85621 6.49561 4.85621C6.21729 4.85621 5.95018 4.96588 5.75216 5.16146C5.55498 5.35863 5.44421 5.62606 5.44421 5.90491C5.44421 6.18375 5.55498 6.45118 5.75216 6.64836C5.94933 6.84553 6.21676 6.95631 6.49561 6.95631C6.77446 6.95631 7.04188 6.84553 7.23906 6.64836Z" fill="white"/>
<path fill-rule="evenodd" clip-rule="evenodd" d="M14.7021 7.99227L15.2263 9.1551C15.3339 9.3878 15.3861 9.64228 15.3788 9.89855C15.3807 10.1482 15.3287 10.3953 15.2263 10.6229C15.1301 10.8447 14.987 11.043 14.8069 11.2044C14.626 11.3666 14.4157 11.4928 14.1874 11.5761L13.015 12.0241C12.9182 12.0582 12.8303 12.1135 12.7577 12.1861C12.6851 12.2587 12.6297 12.3466 12.5956 12.4434L12.1477 13.6158C12.0625 13.8475 11.9293 14.0586 11.7569 14.2353C11.585 14.4161 11.3772 14.5589 11.1469 14.6547C10.9203 14.7553 10.6752 14.8073 10.4273 14.8073C10.1794 14.8073 9.9342 14.7553 9.70763 14.6547L8.56388 14.1496C8.47286 14.101 8.37156 14.0749 8.26841 14.0733C8.16599 14.0715 8.06462 14.0944 7.97291 14.14L6.82915 14.6643C6.54334 14.7955 6.22788 14.8487 5.91484 14.8185C5.6018 14.7884 5.30233 14.676 5.04678 14.4927C4.74417 14.2834 4.51164 13.9878 4.37957 13.6444L3.94114 12.472C3.90704 12.3752 3.85167 12.2873 3.77909 12.2147C3.70651 12.1421 3.61857 12.0868 3.52175 12.0527L2.33986 11.6047C2.11137 11.5262 1.90178 11.4009 1.72452 11.2368C1.54725 11.0727 1.40621 10.8733 1.31046 10.6515C1.20809 10.4239 1.15607 10.1768 1.15795 9.92715C1.15624 9.68061 1.20828 9.43666 1.31046 9.21229L1.8347 8.06851C1.91103 7.87892 1.91103 7.66715 1.8347 7.47756L1.31046 6.33381C1.2095 6.1053 1.15446 5.85916 1.14844 5.60942C1.14843 5.36094 1.19699 5.11486 1.2914 4.88502C1.38262 4.6546 1.5224 4.44656 1.70125 4.27502C1.87948 4.10455 2.09016 3.97164 2.32078 3.88423L3.5027 3.44579C3.5993 3.40679 3.68687 3.34837 3.76004 3.27421C3.83012 3.2033 3.88521 3.11904 3.92205 3.02641L4.36052 1.84449C4.44329 1.60932 4.58044 1.39705 4.76082 1.22496C4.93275 1.04423 5.14054 0.901384 5.37085 0.805572C5.59829 0.708298 5.8431 0.658157 6.09047 0.658157C6.33785 0.658157 6.58263 0.708298 6.81007 0.805572L7.95385 1.32982C8.14344 1.40615 8.35521 1.40615 8.5448 1.32982L9.68858 0.805572C9.91414 0.705826 10.1569 0.650814 10.4034 0.643555C10.6519 0.643547 10.898 0.692109 11.1278 0.78652C11.3549 0.882713 11.5603 1.02333 11.7322 1.20012C11.9041 1.3769 12.0389 1.58626 12.1286 1.8159L12.5766 2.99782C12.6134 3.09045 12.6685 3.17471 12.7386 3.24561C12.8118 3.31978 12.8994 3.37816 12.996 3.41717L14.1683 3.85564C14.3974 3.93287 14.6082 4.05613 14.7879 4.21784C14.9682 4.38271 15.1112 4.58418 15.2073 4.80878C15.3142 5.03529 15.3697 5.28266 15.3697 5.53315C15.3697 5.78364 15.3142 6.03103 15.2073 6.25754L14.7021 7.40133C14.6554 7.49264 14.6324 7.59426 14.6354 7.6968C14.6347 7.7991 14.6575 7.9002 14.7021 7.99227ZM14.1779 9.55541L13.7108 8.44979C13.6174 8.22019 13.5751 7.97299 13.5869 7.72539C13.5939 7.46754 13.6557 7.21413 13.768 6.98194L14.2922 5.83816C14.3592 5.65342 14.3592 5.45101 14.2922 5.26627C14.2129 5.08463 14.0659 4.94106 13.8824 4.86597L12.7005 4.42753C12.4562 4.34186 12.2345 4.20168 12.0524 4.01766C11.8703 3.83391 11.7305 3.61275 11.6425 3.36953L11.1945 2.18764C11.1648 2.09378 11.1124 2.00867 11.042 1.93981C10.9746 1.86998 10.8935 1.81483 10.8037 1.7778C10.7157 1.73686 10.6197 1.71564 10.5226 1.71564C10.4254 1.71564 10.3295 1.73686 10.2414 1.7778L9.09764 2.30201C8.86098 2.40885 8.6043 2.46409 8.34465 2.46409C8.08499 2.46409 7.82831 2.40885 7.59166 2.30201L6.4479 1.7778C6.35412 1.73953 6.25372 1.72008 6.15243 1.72058C6.06128 1.70156 5.96717 1.70156 5.87601 1.72058C5.69437 1.79997 5.55077 1.94699 5.47568 2.13045L5.03724 3.31234C4.94432 3.53956 4.80838 3.7467 4.63691 3.92236C4.45476 4.10639 4.23313 4.24654 3.98878 4.33221L2.80689 4.77065C2.70545 4.80239 2.61143 4.85426 2.53048 4.92315C2.45627 4.99831 2.39507 5.08527 2.34938 5.18049C2.28238 5.36523 2.28238 5.56764 2.34938 5.75238L2.87362 6.89616C2.98046 7.13282 3.0357 7.38947 3.0357 7.64912C3.0357 7.90877 2.98046 8.16546 2.87362 8.40211L2.34938 9.5459C2.31344 9.63418 2.29094 9.72733 2.28265 9.82229C2.28239 9.92046 2.30187 10.0177 2.33986 10.1082C2.3792 10.1967 2.43407 10.2774 2.50188 10.3465C2.57485 10.4116 2.65876 10.4632 2.74971 10.499L3.93159 10.947C4.17538 11.0338 4.39679 11.1738 4.57978 11.3568C4.76277 11.5398 4.90278 11.7612 4.9896 12.005L5.42803 13.1869C5.50635 13.3682 5.64891 13.5142 5.82834 13.5967C5.91736 13.6272 6.01067 13.6433 6.10476 13.6444C6.20605 13.6449 6.30644 13.6255 6.40023 13.5872L7.54401 13.063C7.78066 12.9562 8.03735 12.9009 8.297 12.9009C8.55665 12.9009 8.81331 12.9562 9.04996 13.063L10.1937 13.5872C10.3785 13.6542 10.5809 13.6542 10.7656 13.5872C10.9455 13.5036 11.0857 13.3531 11.1564 13.1678L11.6044 11.9954C11.6901 11.7511 11.8302 11.5295 12.0142 11.3473C12.1939 11.1602 12.4163 11.0196 12.6624 10.9375L13.7776 10.5085C13.8685 10.4727 13.9524 10.4211 14.0254 10.3561C14.0932 10.287 14.1481 10.2063 14.1874 10.1178C14.2254 10.0273 14.2449 9.93001 14.2446 9.83183C14.2363 9.73687 14.2138 9.64369 14.1779 9.55541Z" fill="white"/>
</g>
<defs>
<clipPath id="clip0_7004_21071">
<rect width="15.2503" height="15.2503" fill="white" transform="translate(0.671875 0.166992)"/>
</clipPath>
</defs>
</svg>
