<svg width="16" height="16" viewBox="0 0 16 16" fill="none" xmlns="http://www.w3.org/2000/svg">
<g clip-path="url(#clip0_7004_21099)">
<path d="M15.1593 11.2138C15.2896 11.4745 15.2021 11.7873 14.9657 11.945L14.9035 11.981L8.54923 15.1582C8.41123 15.2272 8.25229 15.237 8.1083 15.1877L8.03772 15.1582L1.68344 11.981C1.40094 11.8398 1.28644 11.4963 1.42769 11.2138C1.55807 10.953 1.8608 10.8354 2.1288 10.9299L2.19495 10.958L8.29348 14.0074L14.392 10.958C14.6745 10.8168 15.018 10.9313 15.1593 11.2138ZM15.1593 8.03662C15.2896 8.29739 15.2021 8.61015 14.9657 8.76782L14.9035 8.80388L8.54923 11.981C8.41123 12.05 8.25229 12.0599 8.1083 12.0106L8.03772 11.981L1.68344 8.80388C1.40094 8.66263 1.28644 8.31912 1.42769 8.03662C1.55807 7.77585 1.8608 7.65823 2.1288 7.75277L2.19495 7.78087L8.29348 10.8303L14.392 7.78087C14.6745 7.63962 15.018 7.75412 15.1593 8.03662ZM8.03772 1.42659C8.19872 1.34609 8.38823 1.34609 8.54923 1.42659L14.9035 4.60373C15.325 4.81448 15.325 5.41599 14.9035 5.62675L8.54923 8.80388C8.38823 8.88438 8.19872 8.88438 8.03772 8.80388L1.68344 5.62675C1.26194 5.41599 1.26194 4.81448 1.68344 4.60373L8.03772 1.42659Z" fill="white"/>
</g>
<defs>
<clipPath id="clip0_7004_21099">
<rect width="15.2503" height="15.2503" fill="white" transform="translate(0.667969 0.66748)"/>
</clipPath>
</defs>
</svg>
