<svg width="16" height="16" viewBox="0 0 16 16" fill="none" xmlns="http://www.w3.org/2000/svg">
<g clip-path="url(#clip0_7004_21101)">
<path d="M15.1593 10.7133C15.2896 10.974 15.2021 11.2868 14.9657 11.4445L14.9035 11.4805L8.54923 14.6577C8.41123 14.7267 8.25229 14.7365 8.1083 14.6872L8.03772 14.6577L1.68344 11.4805C1.40094 11.3393 1.28644 10.9958 1.42769 10.7133C1.55807 10.4525 1.8608 10.3349 2.1288 10.4294L2.19495 10.4575L8.29348 13.5069L14.392 10.4575C14.6745 10.3163 15.018 10.4308 15.1593 10.7133ZM15.1593 7.53613C15.2896 7.7969 15.2021 8.10966 14.9657 8.26733L14.9035 8.3034L8.54923 11.4805C8.41123 11.5495 8.25229 11.5594 8.1083 11.5101L8.03772 11.4805L1.68344 8.3034C1.40094 8.16215 1.28644 7.81863 1.42769 7.53613C1.55807 7.27536 1.8608 7.15774 2.1288 7.25228L2.19495 7.28038L8.29348 10.3298L14.392 7.28038C14.6745 7.13913 15.018 7.25363 15.1593 7.53613ZM8.03772 0.926098C8.19872 0.845597 8.38823 0.845597 8.54923 0.926098L14.9035 4.10324C15.325 4.31399 15.325 4.9155 14.9035 5.12626L8.54923 8.3034C8.38823 8.3839 8.19872 8.3839 8.03772 8.3034L1.68344 5.12626C1.26194 4.9155 1.26194 4.31399 1.68344 4.10324L8.03772 0.926098ZM8.29348 2.07621L3.21704 4.61475L8.29348 7.15265L13.3693 4.61475L8.29348 2.07621Z" fill="white"/>
</g>
<defs>
<clipPath id="clip0_7004_21101">
<rect width="15.2503" height="15.2503" fill="white" transform="translate(0.667969 0.166992)"/>
</clipPath>
</defs>
</svg>
