<svg width="16" height="16" viewBox="0 0 16 16" fill="none" xmlns="http://www.w3.org/2000/svg">
<g clip-path="url(#clip0_7004_21122)">
<path fill-rule="evenodd" clip-rule="evenodd" d="M12.3721 4.52981C12.2358 4.45109 12.1138 4.35708 12.007 4.25119L10.747 4.90081C10.4774 5.03981 10.1462 4.93394 10.0072 4.66432C9.86814 4.39471 9.97402 4.06346 10.2436 3.92445L11.5042 3.27454C11.4395 2.88209 11.5052 2.4657 11.7196 2.09437C12.2119 1.24164 13.3023 0.949468 14.155 1.44179C15.0077 1.93412 15.2999 3.0245 14.8076 3.87723C14.3152 4.72997 13.2249 5.02213 12.3721 4.52981ZM12.6753 2.64616C12.4877 2.97106 12.599 3.3865 12.9239 3.57408C13.2488 3.76166 13.6643 3.65034 13.8518 3.32544C14.0394 3.00055 13.9281 2.5851 13.6032 2.39752C13.2783 2.20994 12.8629 2.32126 12.6753 2.64616Z" fill="white"/>
<path fill-rule="evenodd" clip-rule="evenodd" d="M8.40404 9.47945C10.1702 9.47945 11.5805 11.0127 11.6451 12.9005L11.6474 13.0359V13.773C11.6474 14.0866 11.4092 14.3448 11.1031 14.3778L11.0366 14.3814H1.16454C0.84968 14.3814 0.590459 14.1441 0.557295 13.8393L0.553711 13.773V13.0359C0.553711 11.1319 1.92287 9.55438 3.67155 9.48204L3.79709 9.47945H8.40404ZM3.79709 10.5341C2.64238 10.5341 1.66901 11.5698 1.61108 12.9095L1.60835 13.0359L1.60776 13.3264H10.5928V13.0359C10.5928 11.6779 9.65439 10.6011 8.51174 10.5371L8.40404 10.5341H3.79709Z" fill="white"/>
<path fill-rule="evenodd" clip-rule="evenodd" d="M6.10056 2.94053C7.68084 2.94053 8.95952 4.22646 8.95952 5.80985C8.95952 7.39324 7.68084 8.67918 6.10056 8.67918C4.52028 8.67918 3.2416 7.39324 3.2416 5.80985C3.2416 4.22646 4.52028 2.94053 6.10056 2.94053ZM6.10056 3.99517C5.10465 3.99517 4.29624 4.80702 4.29624 5.80985C4.29624 6.81269 5.10465 7.62454 6.10056 7.62454C7.09647 7.62454 7.90488 6.81269 7.90488 5.80985C7.90488 4.80702 7.09647 3.99517 6.10056 3.99517Z" fill="white"/>
<path fill-rule="evenodd" clip-rule="evenodd" d="M10.7921 6.23946C10.5369 6.07547 10.1971 6.14941 10.0331 6.4046C9.86911 6.65979 9.94304 6.9996 10.1982 7.16359L11.3911 7.93012C11.3528 8.07546 11.3324 8.22806 11.3324 8.38542C11.3324 9.37007 12.1306 10.1683 13.1153 10.1683C14.0999 10.1683 14.8981 9.37007 14.8981 8.38542C14.8981 7.40077 14.0999 6.60256 13.1153 6.60256C12.6864 6.60256 12.2929 6.75397 11.9853 7.00626L10.7921 6.23946ZM12.436 8.38542C12.436 8.01027 12.7401 7.70614 13.1153 7.70614C13.4904 7.70614 13.7946 8.01027 13.7946 8.38542C13.7946 8.76058 13.4904 9.06471 13.1153 9.06471C12.7401 9.06471 12.436 8.76058 12.436 8.38542Z" fill="white"/>
</g>
<defs>
<clipPath id="clip0_7004_21122">
<rect width="15.2503" height="15.2503" fill="white" transform="translate(0.174805 0.166992)"/>
</clipPath>
</defs>
</svg>
