<svg width="16" height="16" viewBox="0 0 16 16" fill="none" xmlns="http://www.w3.org/2000/svg">
<g clip-path="url(#clip0_7004_21073)">
<path d="M14.7012 8.49181C14.6565 8.39972 14.6332 8.2987 14.6332 8.19634C14.6332 8.09398 14.6565 7.99295 14.7012 7.90086L15.2063 6.75708C15.3101 6.5297 15.3639 6.2827 15.3639 6.03274C15.3639 5.78278 15.3101 5.53573 15.2063 5.30835C15.108 5.08655 14.965 4.8874 14.7863 4.7234C14.6075 4.55939 14.3968 4.43406 14.1674 4.35521L12.995 3.91674C12.9004 3.87887 12.8144 3.82216 12.7423 3.75007C12.6702 3.67798 12.6135 3.59201 12.5756 3.49735L12.1277 2.31547C12.0391 2.08482 11.9045 1.8746 11.732 1.69765C11.5596 1.52069 11.353 1.3807 11.1247 1.28617C10.8964 1.19165 10.6513 1.14458 10.4042 1.14783C10.1571 1.15109 9.91334 1.20463 9.68763 1.30514L8.54388 1.82936C8.35429 1.90569 8.14252 1.90569 7.95293 1.82936L6.80915 1.30514C6.58295 1.20308 6.33829 1.14834 6.09017 1.14429C5.84204 1.14023 5.5957 1.18696 5.36629 1.28158C5.13688 1.3762 4.92924 1.51671 4.75612 1.69451C4.583 1.8723 4.44805 2.08362 4.35957 2.31547L3.92113 3.49735C3.88326 3.59201 3.82655 3.67798 3.75446 3.75007C3.68237 3.82216 3.5964 3.87887 3.50175 3.91674L2.31986 4.35521C2.08801 4.44368 1.87669 4.57861 1.6989 4.75173C1.52111 4.92485 1.38059 5.13252 1.28597 5.36193C1.19135 5.59134 1.14463 5.83762 1.14868 6.08574C1.15273 6.33386 1.20748 6.57859 1.30953 6.80479L1.83375 7.94851C1.91008 8.1381 1.91008 8.34987 1.83375 8.53945L1.30953 9.68324C1.20832 9.90964 1.15601 10.1549 1.15601 10.4029C1.15601 10.6509 1.20832 10.8961 1.30953 11.1225C1.40479 11.3446 1.54562 11.5442 1.72296 11.7084C1.90029 11.8726 2.11014 11.9977 2.33891 12.0756L3.5208 12.5236C3.61546 12.5615 3.70145 12.6182 3.77354 12.6903C3.84563 12.7623 3.90231 12.8484 3.94019 12.943L4.37865 14.1154C4.50933 14.4604 4.74126 14.7579 5.04403 14.9689C5.3468 15.1798 5.70626 15.2943 6.07524 15.2973C6.33502 15.2985 6.59192 15.2432 6.8282 15.1352L7.97199 14.611C8.06486 14.5687 8.16543 14.546 8.26746 14.5443C8.37047 14.5469 8.47153 14.5729 8.56293 14.6205L9.70671 15.1257C9.93247 15.2293 10.1779 15.2829 10.4263 15.2829C10.6747 15.2829 10.9202 15.2293 11.1459 15.1257C11.3766 15.0329 11.585 14.8923 11.7574 14.7132C11.9299 14.5342 12.0626 14.3207 12.1468 14.0867L12.5947 12.9144C12.6326 12.8197 12.6893 12.7338 12.7614 12.6617C12.8335 12.5896 12.9195 12.5329 13.0141 12.495L14.1865 12.0471C14.4159 11.9682 14.6266 11.8428 14.8053 11.6788C14.9841 11.5148 15.1271 11.3157 15.2254 11.0939C15.329 10.8682 15.3827 10.6227 15.3827 10.3743C15.3827 10.1259 15.329 9.88043 15.2254 9.65467L14.7012 8.49181ZM5.44617 6.40443C5.44617 6.12636 5.55662 5.85972 5.75324 5.6631C5.94987 5.46648 6.21656 5.35599 6.49463 5.35599C6.7727 5.35599 7.03936 5.46648 7.23598 5.6631C7.43261 5.85972 7.54306 6.12636 7.54306 6.40443C7.54306 6.68249 7.43261 6.94919 7.23598 7.14581C7.03936 7.34243 6.7727 7.45292 6.49463 7.45292C6.21656 7.45292 5.94987 7.34243 5.75324 7.14581C5.55662 6.94919 5.44617 6.68249 5.44617 6.40443ZM6.93306 10.9033C6.88338 10.9728 6.81744 11.0291 6.74103 11.0673C6.66461 11.1055 6.58004 11.1244 6.49463 11.1225C6.37846 11.1213 6.2654 11.0847 6.17053 11.0177C6.11275 10.9753 6.06392 10.9218 6.02687 10.8605C5.98982 10.7991 5.96528 10.731 5.95465 10.6602C5.94401 10.5893 5.94752 10.5171 5.96494 10.4475C5.98237 10.378 6.01336 10.3126 6.05616 10.2552L9.63044 5.48945C9.72034 5.3763 9.84975 5.30135 9.99264 5.27972H10.0784C10.1964 5.2796 10.3108 5.31997 10.4025 5.3941C10.4606 5.43638 10.5096 5.48996 10.5465 5.55164C10.5834 5.61331 10.6075 5.68183 10.6173 5.75304C10.6271 5.82425 10.6224 5.89672 10.6035 5.96608C10.5846 6.03543 10.5519 6.1002 10.5073 6.1566L6.93306 10.9033ZM10.0689 11.0272C9.86154 11.0272 9.65882 10.9657 9.4864 10.8505C9.31398 10.7353 9.17962 10.5715 9.10026 10.3799C9.02091 10.1884 9.00012 9.97754 9.04058 9.77416C9.08103 9.57078 9.1809 9.38401 9.32753 9.23738C9.47415 9.09075 9.66098 8.99086 9.86437 8.9504C10.0677 8.90995 10.2785 8.93074 10.4701 9.01009C10.6617 9.08945 10.8255 9.22384 10.9407 9.39626C11.0559 9.56868 11.1173 9.77134 11.1173 9.97871C11.1123 10.2535 10.9997 10.5153 10.8036 10.7078C10.6075 10.9003 10.3437 11.0082 10.0689 11.0081V11.0272Z" fill="white"/>
</g>
<defs>
<clipPath id="clip0_7004_21073">
<rect width="15.2503" height="15.2503" fill="white" transform="translate(0.671875 0.66748)"/>
</clipPath>
</defs>
</svg>
