<svg width="16" height="16" viewBox="0 0 16 16" fill="none" xmlns="http://www.w3.org/2000/svg">
<g clip-path="url(#clip0_7004_21114)">
<path fill-rule="evenodd" clip-rule="evenodd" d="M1.30859 2.48274C1.30859 2.18943 1.54533 1.95166 1.83736 1.95166H10.6477C10.9398 1.95166 11.1765 2.18943 11.1765 2.48274V10.1518C11.1765 10.4451 10.9398 10.6829 10.6477 10.6829H1.83736C1.54533 10.6829 1.30859 10.4451 1.30859 10.1518V2.48274ZM2.36613 3.01383V9.62076H10.119V3.01383H2.36613Z" fill="white"/>
<path fill-rule="evenodd" clip-rule="evenodd" d="M10.119 5.43242C10.119 5.13911 10.3557 4.90134 10.6477 4.90134H12.9972C13.1374 4.90134 13.2719 4.95729 13.3711 5.05689L15.1331 6.82668C15.2323 6.92628 15.288 7.06136 15.288 7.20221V10.1519C15.288 10.4452 15.0513 10.6829 14.7592 10.6829L10.6477 10.6829C10.3557 10.6829 10.119 10.4452 10.119 10.1519V5.43242ZM11.1765 5.9635V9.62078H14.2305V7.42219L12.7781 5.9635H11.1765Z" fill="white"/>
<path fill-rule="evenodd" clip-rule="evenodd" d="M4.48044 10.6829C3.9615 10.6829 3.54081 11.1054 3.54081 11.6267C3.54081 12.1479 3.9615 12.5704 4.48044 12.5704C4.99938 12.5704 5.42007 12.1479 5.42007 11.6267C5.42007 11.1054 4.99938 10.6829 4.48044 10.6829ZM2.48328 11.6267C2.48328 10.5188 3.37744 9.62075 4.48044 9.62075C5.58344 9.62075 6.4776 10.5188 6.4776 11.6267C6.4776 12.7345 5.58344 13.6326 4.48044 13.6326C3.37744 13.6326 2.48328 12.7345 2.48328 11.6267Z" fill="white"/>
<path fill-rule="evenodd" clip-rule="evenodd" d="M12.1161 10.6829C11.5972 10.6829 11.1765 11.1054 11.1765 11.6267C11.1765 12.1479 11.5972 12.5704 12.1161 12.5704C12.6351 12.5704 13.0558 12.1479 13.0558 11.6267C13.0558 11.1054 12.6351 10.6829 12.1161 10.6829ZM10.119 11.6267C10.119 10.5188 11.0131 9.62075 12.1161 9.62075C13.2191 9.62075 14.1133 10.5188 14.1133 11.6267C14.1133 12.7345 13.2191 13.6326 12.1161 13.6326C11.0131 13.6326 10.119 12.7345 10.119 11.6267Z" fill="white"/>
</g>
<defs>
<clipPath id="clip0_7004_21114">
<rect width="15.2503" height="15.2503" fill="white" transform="translate(0.673828 0.166992)"/>
</clipPath>
</defs>
</svg>
