<svg width="16" height="16" viewBox="0 0 16 16" fill="none" xmlns="http://www.w3.org/2000/svg">
<g clip-path="url(#clip0_7004_21124)">
<path fill-rule="evenodd" clip-rule="evenodd" d="M5.53673 2.41464C5.53673 1.58994 6.20528 0.921387 7.02998 0.921387H9.57169C10.3964 0.921387 11.0649 1.58994 11.0649 2.41464V4.95635C11.0649 5.78106 10.3964 6.44961 9.57169 6.44961H8.80918V8.26058H12.4311C13.2383 8.26058 13.8926 8.91491 13.8926 9.72206V10.1986V11.2103C14.6186 11.4285 15.1476 12.1021 15.1476 12.8992C15.1476 13.8731 14.3581 14.6625 13.3843 14.6625C12.4104 14.6625 11.6209 13.8731 11.6209 12.8992C11.6209 12.1021 12.1499 11.4285 12.8759 11.2103V10.1986V9.72206C12.8759 9.47641 12.6768 9.27726 12.4311 9.27726H8.80918V11.2103C9.53522 11.4285 10.0641 12.1021 10.0641 12.8992C10.0641 13.8731 9.27469 14.6625 8.30084 14.6625C7.32699 14.6625 6.53752 13.8731 6.53752 12.8992C6.53752 12.1021 7.06646 11.4285 7.79249 11.2103V9.27726H4.17056C3.9249 9.27726 3.72576 9.47641 3.72576 9.72206V11.2103C4.45179 11.4285 4.98073 12.1021 4.98073 12.8992C4.98073 13.8731 4.19126 14.6625 3.21741 14.6625C2.24356 14.6625 1.4541 13.8731 1.4541 12.8992C1.4541 12.1021 1.98303 11.4285 2.70907 11.2103V9.72206C2.70907 8.91491 3.3634 8.26058 4.17056 8.26058H7.79249V6.44961H7.02998C6.20528 6.44961 5.53673 5.78106 5.53673 4.95635V2.41464ZM7.02998 2.00161C6.80187 2.00161 6.61695 2.18653 6.61695 2.41464V4.95635C6.61695 5.18446 6.80187 5.36938 7.02998 5.36938H9.57169C9.7998 5.36938 9.98472 5.18446 9.98472 4.95635V2.41464C9.98472 2.18653 9.7998 2.00161 9.57169 2.00161H7.02998ZM3.21741 12.1208C2.78752 12.1208 2.43901 12.4693 2.43901 12.8992C2.43901 13.3291 2.78752 13.6776 3.21741 13.6776C3.64731 13.6776 3.99581 13.3291 3.99581 12.8992C3.99581 12.4693 3.64731 12.1208 3.21741 12.1208ZM7.52244 12.8992C7.52244 12.4693 7.87094 12.1208 8.30084 12.1208C8.73073 12.1208 9.07924 12.4693 9.07924 12.8992C9.07924 13.3291 8.73073 13.6776 8.30084 13.6776C7.87094 13.6776 7.52244 13.3291 7.52244 12.8992ZM13.3843 12.1208C12.9544 12.1208 12.6059 12.4693 12.6059 12.8992C12.6059 13.3291 12.9544 13.6776 13.3843 13.6776C13.8142 13.6776 14.1627 13.3291 14.1627 12.8992C14.1627 12.4693 13.8142 12.1208 13.3843 12.1208Z" fill="white"/>
</g>
<defs>
<clipPath id="clip0_7004_21124">
<rect width="15.2503" height="15.2503" fill="white" transform="translate(0.675781 0.166992)"/>
</clipPath>
</defs>
</svg>
