<svg width="16" height="16" viewBox="0 0 16 16" fill="none" xmlns="http://www.w3.org/2000/svg">
<g clip-path="url(#clip0_7004_21079)">
<path fill-rule="evenodd" clip-rule="evenodd" d="M9.90493 1.91371C10.6354 1.5153 11.5259 2.04397 11.5259 2.87598V12.7081C11.5259 13.5401 10.6354 14.0688 9.90493 13.6703L3.75871 10.3179H2.48382C1.61525 10.3179 0.911133 9.61375 0.911133 8.74518V6.8389C0.911133 5.97033 1.61525 5.26621 2.48382 5.26621H3.75868L9.90493 1.91371ZM10.2868 3.11682L4.53621 6.25353V9.33053L10.2868 12.4672V3.11682ZM2.15022 6.8389C2.15022 6.65465 2.29957 6.5053 2.48382 6.5053H3.29399V9.07878H2.48382C2.29957 9.07878 2.15022 8.92942 2.15022 8.74518V6.8389Z" fill="white"/>
<path d="M14.8851 4.22786C15.0988 4.49504 15.0555 4.88492 14.7883 5.09866L13.1997 6.36952C12.9326 6.58327 12.5427 6.53995 12.3289 6.27276C12.1152 6.00558 12.1585 5.61571 12.4257 5.40196L14.0143 4.1311C14.2815 3.91735 14.6713 3.96067 14.8851 4.22786Z" fill="white"/>
<path d="M12.495 7.80792C12.495 7.46576 12.7723 7.18838 13.1145 7.18838H15.0526C15.3947 7.18838 15.6721 7.46576 15.6721 7.80792C15.6721 8.15008 15.3947 8.42746 15.0526 8.42746H13.1145C12.7723 8.42746 12.495 8.15008 12.495 7.80792Z" fill="white"/>
<path d="M13.1997 9.53226C12.9326 9.31851 12.5427 9.36183 12.3289 9.62901C12.1152 9.8962 12.1585 10.2861 12.4257 10.4998L14.0143 11.7707C14.2815 11.9844 14.6713 11.9411 14.8851 11.6739C15.0988 11.4067 15.0555 11.0169 14.7883 10.8031L13.1997 9.53226Z" fill="white"/>
</g>
<defs>
<clipPath id="clip0_7004_21079">
<rect width="15.2503" height="15.2503" fill="white" transform="translate(0.672852 0.166992)"/>
</clipPath>
</defs>
</svg>
