<svg width="16" height="16" viewBox="0 0 16 16" fill="none" xmlns="http://www.w3.org/2000/svg">
<g>
<path d="M2.79564 2.8295L12.3157 6.43871L8.99132 7.91847C8.50421 8.12894 8.11568 8.51602 7.9044 9.00124L6.42793 12.3127L2.8047 2.8295H2.79564ZM1.80834 1.0249C1.68198 1.02522 1.55757 1.05614 1.44588 1.11503C1.3342 1.17391 1.23856 1.25897 1.16724 1.36288C1.09592 1.46679 1.051 1.58642 1.03643 1.71146C1.02187 1.83649 1.0381 1.96317 1.08365 2.08058L5.61268 14.0541C5.66833 14.2031 5.76851 14.3314 5.89972 14.4217C6.03094 14.5121 6.18692 14.5602 6.34644 14.5594C6.49922 14.5618 6.64915 14.5184 6.77678 14.4347C6.90441 14.351 7.00376 14.2309 7.06195 14.0902L9.10908 9.51556C9.18441 9.3362 9.32763 9.19358 9.50769 9.11855L14.1091 7.07934C14.2493 7.01462 14.3674 6.91027 14.4485 6.77928C14.5296 6.64828 14.5703 6.49642 14.5655 6.34258C14.5607 6.18874 14.5105 6.03973 14.4213 5.91404C14.3321 5.78835 14.2078 5.69152 14.0638 5.63565L2.05281 1.12414C1.96025 1.08889 1.8621 1.07055 1.763 1.07001L1.80834 1.0249Z" fill="white"/>
</g>
</svg>
