<svg width="16" height="16" viewBox="0 0 16 16" fill="none" xmlns="http://www.w3.org/2000/svg">
<g>
<path fill-rule="evenodd" clip-rule="evenodd" d="M2.70509 8.50658C2.70509 8.1802 2.96967 7.91563 3.29604 7.91563H6.63204C6.95841 7.91563 7.22299 8.1802 7.22299 8.50658C7.22299 8.83295 6.95841 9.09752 6.63204 9.09752H3.88699V12.7957C3.88699 13.1221 3.62241 13.3867 3.29604 13.3867C2.96967 13.3867 2.70509 13.1221 2.70509 12.7957V8.50658Z" fill="white"/>
<path fill-rule="evenodd" clip-rule="evenodd" d="M1.75195 12.7957C1.75195 12.4693 2.01653 12.2048 2.3429 12.2048H14.2572C14.5835 12.2048 14.8481 12.4693 14.8481 12.7957C14.8481 13.1221 14.5835 13.3867 14.2572 13.3867H2.3429C2.01653 13.3867 1.75195 13.1221 1.75195 12.7957Z" fill="white"/>
<path fill-rule="evenodd" clip-rule="evenodd" d="M6.04109 5.64715C6.04109 5.32078 6.30567 5.0562 6.63204 5.0562H9.96804C10.2944 5.0562 10.559 5.32078 10.559 5.64715C10.559 5.97352 10.2944 6.2381 9.96804 6.2381H7.22299V12.7957C7.22299 13.1221 6.95841 13.3867 6.63204 13.3867C6.30567 13.3867 6.04109 13.1221 6.04109 12.7957V5.64715Z" fill="white"/>
<path fill-rule="evenodd" clip-rule="evenodd" d="M9.37709 2.78773C9.37709 2.46135 9.64166 2.19678 9.96804 2.19678H13.304C13.6304 2.19678 13.895 2.46135 13.895 2.78773V12.7957C13.895 13.1221 13.6304 13.3867 13.304 13.3867H9.96804C9.64166 13.3867 9.37709 13.1221 9.37709 12.7957V2.78773ZM10.559 3.37867V12.2048H12.7131V3.37867H10.559Z" fill="white"/>
</g>
</svg>
