<svg width="16" height="16" viewBox="0 0 16 16" fill="none" xmlns="http://www.w3.org/2000/svg">
<g clip-path="url(#clip0_7004_21085)">
<path fill-rule="evenodd" clip-rule="evenodd" d="M7.82497 7.96559C7.3143 8.30482 6.71443 8.48489 6.10136 8.483C5.28222 8.47798 4.49824 8.14971 3.9199 7.56959C3.34157 6.98947 3.01568 6.20444 3.01319 5.38529C3.01319 4.77221 3.19514 4.17293 3.53595 3.6633C3.87675 3.15368 4.36108 2.75667 4.92767 2.52249C5.49426 2.28831 6.11761 2.22752 6.71877 2.34782C7.31993 2.46812 7.87184 2.76411 8.30468 3.19828C8.73752 3.63246 9.03181 4.18532 9.15026 4.78684C9.26871 5.38837 9.20601 6.01149 8.97009 6.57736C8.73417 7.14322 8.33564 7.62636 7.82497 7.96559ZM4.75414 4.48509C4.57609 4.75155 4.48106 5.06482 4.48106 5.38529C4.48106 5.81503 4.65178 6.22718 4.95566 6.53105C5.25953 6.83492 5.67162 7.00564 6.10136 7.00564C6.42183 7.00564 6.73515 6.91061 7.00162 6.73257C7.26808 6.55452 7.47574 6.30146 7.59838 6.00538C7.72102 5.7093 7.75311 5.38351 7.69059 5.06919C7.62806 4.75488 7.47373 4.46617 7.24712 4.23956C7.02051 4.01295 6.7318 3.85861 6.41748 3.79609C6.10317 3.73357 5.7774 3.76566 5.48133 3.8883C5.18525 4.01094 4.93218 4.21862 4.75414 4.48509Z" fill="white"/>
<path d="M3.74712 9.36949H8.45565C9.27556 9.36949 10.062 9.69454 10.6427 10.2734C11.2233 10.8523 11.5508 11.6378 11.5534 12.4577V13.6395C11.5534 13.7359 11.5344 13.8314 11.4975 13.9204C11.4606 14.0095 11.4066 14.0903 11.3384 14.1585C11.2702 14.2267 11.1893 14.2807 11.1003 14.3176C11.0112 14.3545 10.9158 14.3735 10.8194 14.3735C10.723 14.3735 10.6276 14.3545 10.5386 14.3176C10.4495 14.2807 10.3686 14.2267 10.3005 14.1585C10.2323 14.0903 10.1783 14.0095 10.1414 13.9204C10.1045 13.8314 10.0855 13.7359 10.0855 13.6395V12.4577C10.083 12.027 9.91017 11.6149 9.60478 11.3113C9.29939 11.0077 8.88627 10.8373 8.45565 10.8373H3.74712C3.3165 10.8373 2.90338 11.0077 2.59799 11.3113C2.2926 11.6149 2.11975 12.027 2.11723 12.4577V13.6395C2.11723 13.7359 2.09827 13.8314 2.06138 13.9204C2.0245 14.0095 1.97042 14.0903 1.90227 14.1585C1.83412 14.2267 1.75321 14.2807 1.66416 14.3176C1.57512 14.3545 1.47973 14.3735 1.38335 14.3735C1.28697 14.3735 1.19153 14.3545 1.10248 14.3176C1.01344 14.2807 0.932522 14.2267 0.864371 14.1585C0.796221 14.0903 0.742145 14.0095 0.705262 13.9204C0.668379 13.8314 0.649414 13.7359 0.649414 13.6395V12.4577C0.651937 11.6378 0.979428 10.8523 1.56009 10.2734C2.14075 9.69454 2.92721 9.36949 3.74712 9.36949Z" fill="white"/>
<path d="M12.7734 9.46478C12.5838 9.41548 12.3824 9.44353 12.2135 9.54273C12.0446 9.64194 11.922 9.8042 11.8727 9.99379C11.8234 10.1834 11.8515 10.3848 11.9507 10.5537C12.0499 10.7226 12.2121 10.8452 12.4017 10.8945C12.7495 10.9831 13.0579 11.1848 13.2787 11.4677C13.4995 11.7506 13.6202 12.0988 13.6217 12.4577V13.6395C13.6217 13.8342 13.699 14.0209 13.8366 14.1585C13.9743 14.2961 14.161 14.3735 14.3556 14.3735C14.5503 14.3735 14.737 14.2961 14.8746 14.1585C15.0122 14.0209 15.0896 13.8342 15.0896 13.6395V12.4577C15.0902 11.7725 14.8629 11.1067 14.4436 10.5649C14.0243 10.0231 13.4367 9.63605 12.7734 9.46478Z" fill="white"/>
<path d="M10.122 2.37653C10.218 2.36279 10.3157 2.3682 10.4096 2.39247V2.41152C11.0731 2.58438 11.6604 2.97244 12.0797 3.5149C12.4989 4.05736 12.7263 4.72359 12.7263 5.40917C12.7263 6.09475 12.4989 6.76095 12.0797 7.30341C11.6604 7.84587 11.0731 8.23393 10.4096 8.40679C10.3496 8.41609 10.2885 8.41609 10.2285 8.40679C10.0983 8.40901 9.96988 8.37608 9.8568 8.31147C9.73232 8.23608 9.63274 8.12583 9.57034 7.99436C9.50794 7.86289 9.48547 7.71599 9.50577 7.57189C9.52606 7.42778 9.58819 7.29278 9.68448 7.18366C9.78077 7.07454 9.90698 6.9961 10.0474 6.95802C10.3944 6.86756 10.7016 6.66454 10.9208 6.38081C11.1401 6.09708 11.259 5.74865 11.259 5.39009C11.259 5.03153 11.1401 4.68309 10.9208 4.39936C10.7016 4.11564 10.3944 3.91265 10.0474 3.82218C9.86003 3.77061 9.69984 3.64855 9.60036 3.48156C9.50088 3.31458 9.4698 3.11558 9.51368 2.92622C9.53704 2.83211 9.57881 2.74356 9.6366 2.66569C9.69439 2.58781 9.76703 2.52215 9.85034 2.47252C9.93365 2.42288 10.026 2.39027 10.122 2.37653Z" fill="white"/>
</g>
<defs>
<clipPath id="clip0_7004_21085">
<rect width="15.2503" height="15.2503" fill="white" transform="translate(0.172852 0.66748)"/>
</clipPath>
</defs>
</svg>
