<svg width="16" height="16" viewBox="0 0 16 16" fill="none" xmlns="http://www.w3.org/2000/svg">
<g clip-path="url(#clip0_7004_21116)">
<path fill-rule="evenodd" clip-rule="evenodd" d="M1.96797 2.4541C1.6038 2.4541 1.30859 2.74931 1.30859 3.11347V10.5948C1.30859 10.9589 1.6038 11.2542 1.96797 11.2542H2.60904C2.51259 11.4951 2.45953 11.7581 2.45953 12.0335C2.45953 13.1922 3.39887 14.1316 4.55761 14.1316C5.71636 14.1316 6.6557 13.1922 6.6557 12.0335C6.6557 11.7581 6.60264 11.4951 6.50619 11.2542H10.0904C9.99393 11.4951 9.94087 11.7581 9.94087 12.0335C9.94087 13.1922 10.8802 14.1316 12.039 14.1316C13.1977 14.1316 14.137 13.1922 14.137 12.0335C14.137 11.7581 14.084 11.4951 13.9875 11.2542H14.6286C14.9928 11.2542 15.288 10.959 15.288 10.5948V7.71738C15.288 7.5425 15.2185 7.37479 15.0949 7.25113L13.3684 5.52467C13.2448 5.40102 13.0771 5.33155 12.9022 5.33155H11.2596V3.11347C11.2596 2.74931 10.9644 2.4541 10.6002 2.4541H1.96797ZM12.0322 11.2542H12.0457C12.473 11.2578 12.8183 11.6053 12.8183 12.0335C12.8183 12.4639 12.4694 12.8128 12.039 12.8128C11.6085 12.8128 11.2596 12.4639 11.2596 12.0335C11.2596 11.6053 11.6049 11.2578 12.0322 11.2542ZM12.0501 9.93543H13.9693V7.9905L12.6291 6.65029H11.2596V9.93543H12.0279C12.0315 9.93541 12.0352 9.9354 12.039 9.9354C12.0427 9.9354 12.0464 9.93541 12.0501 9.93543ZM4.55761 9.9354L4.56222 9.93541H9.94087L9.94087 5.99092L9.94087 5.98823V3.77285H2.62734V9.93541H4.55301L4.55761 9.9354ZM3.77827 12.0335C3.77827 11.604 4.12562 11.2557 4.55469 11.2542H4.56054C4.98961 11.2557 5.33695 11.604 5.33695 12.0335C5.33695 12.4639 4.98803 12.8128 4.55761 12.8128C4.1272 12.8128 3.77827 12.4639 3.77827 12.0335Z" fill="white"/>
<path d="M1.96797 2.4541C1.6038 2.4541 1.30859 2.74931 1.30859 3.11347V10.5948C1.30859 10.9589 1.6038 11.2542 1.96797 11.2542H10.6002C10.9644 11.2542 11.2596 10.9589 11.2596 10.5948V3.11347C11.2596 2.74931 10.9644 2.4541 10.6002 2.4541H1.96797Z" fill="white"/>
</g>
<defs>
<clipPath id="clip0_7004_21116">
<rect width="15.2503" height="15.2503" fill="white" transform="translate(0.673828 0.66748)"/>
</clipPath>
</defs>
</svg>
