<svg width="16" height="16" viewBox="0 0 16 16" fill="none" xmlns="http://www.w3.org/2000/svg">
<g clip-path="url(#clip0_7004_21063)">
<path fill-rule="evenodd" clip-rule="evenodd" d="M15.0103 5.8223C14.915 5.63167 14.718 5.50459 14.5019 5.50459H9.12622L9.71717 0.789711C9.74894 0.548249 9.6155 0.306786 9.38675 0.211472C9.31685 0.179701 9.2406 0.166992 9.1707 0.166992C9.00549 0.166992 8.84664 0.236889 8.73861 0.363975L2.06662 8.37037C1.92683 8.53558 1.90141 8.77069 1.99037 8.96131C2.07933 9.1583 2.28267 9.28538 2.49236 9.28538H7.86808L7.27713 13.9939C7.25171 14.2417 7.38515 14.4768 7.60755 14.5785C7.83631 14.6738 8.10319 14.6103 8.26204 14.4196L14.934 6.41325C15.0675 6.24804 15.0992 6.01928 15.0103 5.8223ZM8.61788 12.2528L9.04997 8.7961C9.06904 8.63725 9.0182 8.47839 8.91653 8.35766C8.80851 8.24328 8.65601 8.17338 8.49715 8.17338H3.68061L8.37642 2.53714L7.94433 5.98751C7.92527 6.14637 7.9761 6.30523 8.08412 6.42596C8.18579 6.54669 8.33829 6.61658 8.49715 6.61658H13.3137L8.61788 12.2528Z" fill="white"/>
</g>
<defs>
<clipPath id="clip0_7004_21063">
<rect width="15.2503" height="15.2503" fill="white" transform="translate(0.668945 0.166992)"/>
</clipPath>
</defs>
</svg>
