<svg width="16" height="16" viewBox="0 0 16 16" fill="none" xmlns="http://www.w3.org/2000/svg">
<g clip-path="url(#clip0_7004_21077)">
<path d="M11.0568 9.1453C11.0568 10.1981 10.2033 11.0516 9.15051 11.0516C8.0977 11.0516 7.24423 10.1981 7.24423 9.1453C7.24423 8.09249 8.0977 7.23901 9.15051 7.23901C10.2033 7.23901 11.0568 8.09249 11.0568 9.1453Z" fill="white"/>
<path fill-rule="evenodd" clip-rule="evenodd" d="M12.3163 2.5831C12.3751 2.69714 12.4103 2.8219 12.4198 2.94987V4.93239H14.2212C14.3564 4.92858 14.491 4.95145 14.6173 4.9997C14.7437 5.04794 14.8593 5.12061 14.9576 5.21355C15.0558 5.30649 15.1348 5.41789 15.19 5.54137C15.2451 5.66485 15.2755 5.79801 15.2792 5.93321V12.3669C15.2755 12.5021 15.2451 12.6352 15.19 12.7587C15.1348 12.8822 15.0558 12.9936 14.9576 13.0865C14.8593 13.1795 14.7437 13.2521 14.6173 13.3004C14.491 13.3486 14.3564 13.3715 14.2212 13.3677H4.07979C3.94506 13.3715 3.81088 13.3486 3.68507 13.3002C3.55927 13.2519 3.44434 13.179 3.34684 13.086C3.24935 12.9929 3.17126 12.8814 3.11711 12.758C3.06295 12.6346 3.03377 12.5017 3.0313 12.3669V10.5083H1.22037C1.09286 10.5214 0.963986 10.5086 0.841529 10.4708C0.719073 10.4329 0.605541 10.3707 0.507662 10.288C0.409783 10.2052 0.32957 10.1036 0.271878 9.98912C0.214187 9.87466 0.180177 9.74976 0.171875 9.62186V2.94987C0.181394 2.82279 0.216329 2.69893 0.274554 2.58558C0.332779 2.47222 0.413113 2.37168 0.510862 2.28993C0.608611 2.20818 0.721763 2.14685 0.843624 2.10959C0.965484 2.07232 1.09361 2.05987 1.22037 2.07296H11.3617C11.4893 2.0585 11.6184 2.06995 11.7413 2.10659C11.8643 2.14323 11.9786 2.20432 12.0774 2.28621C12.1762 2.36809 12.2575 2.46906 12.3163 2.5831ZM3.15335 5.05444C3.35355 4.85424 3.62511 4.74178 3.90823 4.74178H11.419V3.07378H1.17272V9.50749H2.84072V5.80929C2.84072 5.52617 2.95315 5.25464 3.15335 5.05444ZM4.03215 12.3669H14.2784V5.93321H4.03215V12.3669Z" fill="white"/>
</g>
<defs>
<clipPath id="clip0_7004_21077">
<rect width="15.2503" height="15.2503" fill="white" transform="translate(0.171875 0.166992)"/>
</clipPath>
</defs>
</svg>
