<svg width="16" height="16" viewBox="0 0 16 16" fill="none" xmlns="http://www.w3.org/2000/svg">
<g>
<path d="M10.589 8.52904C12.5044 8.52904 14.0338 10.1919 14.1039 12.2392L14.1065 12.3861V13.1854C14.1065 13.5256 13.8481 13.8056 13.5162 13.8414L13.444 13.8453H2.73765C2.39618 13.8453 2.11505 13.5879 2.07908 13.2573L2.0752 13.1854V12.3861C2.0752 10.3212 3.56007 8.61031 5.45653 8.53185L5.59268 8.52904H10.589ZM10.589 9.67281H5.59268C4.34038 9.67281 3.28475 10.796 3.22192 12.249L3.21897 12.3861L3.21833 12.7011H12.9627V12.3861C12.9627 10.9133 11.945 9.7455 10.7058 9.67608L10.589 9.67281ZM8.09082 1.4375C9.80465 1.4375 11.1914 2.83212 11.1914 4.54932C11.1914 6.26653 9.80465 7.66115 8.09082 7.66115C6.37699 7.66115 4.99024 6.26653 4.99024 4.54932C4.99024 2.83212 6.37699 1.4375 8.09082 1.4375ZM8.09082 2.58127C7.01075 2.58127 6.13401 3.46174 6.13401 4.54932C6.13401 5.63691 7.01075 6.51737 8.09082 6.51737C9.1709 6.51737 10.0476 5.63691 10.0476 4.54932C10.0476 3.46174 9.1709 2.58127 8.09082 2.58127Z" fill="white"/>
</g>
</svg>
