<svg width="16" height="16" viewBox="0 0 16 16" fill="none" xmlns="http://www.w3.org/2000/svg">
<path fill-rule="evenodd" clip-rule="evenodd" d="M9.96706 2.69727C9.64069 2.69727 9.37611 2.96184 9.37611 3.28821V5.55669H6.63106C6.30469 5.55669 6.04011 5.82127 6.04011 6.14764V8.41612H3.29507C2.96869 8.41612 2.70412 8.68069 2.70412 9.00706V12.7053H2.34192C2.01555 12.7053 1.75098 12.9698 1.75098 13.2962C1.75098 13.6226 2.01555 13.8871 2.34192 13.8871L3.29507 13.8871L14.2562 13.8871C14.5826 13.8871 14.8471 13.6226 14.8471 13.2962C14.8471 12.9698 14.5826 12.7053 14.2562 12.7053H13.894V3.28821C13.894 2.96184 13.6294 2.69727 13.3031 2.69727H9.96706ZM9.37611 12.7053V6.73859H7.22201V12.7053H9.37611ZM3.88601 9.59801H6.04011V12.7053H3.88601V9.59801Z" fill="white"/>
</svg>
