<svg width="16" height="16" viewBox="0 0 16 16" fill="none" xmlns="http://www.w3.org/2000/svg">
<g >
<path d="M13.192 8.42721C13.7184 8.42721 14.1452 8.85394 14.1452 9.38035V13.1929C14.1452 13.7193 13.7184 14.1461 13.192 14.1461H9.37946C8.85306 14.1461 8.42632 13.7193 8.42632 13.1929V9.38035C8.42632 8.85394 8.85306 8.42721 9.37946 8.42721H13.192ZM6.20419 8.42721C6.73059 8.42721 7.15733 8.85394 7.15733 9.38035V13.1929C7.15733 13.7193 6.73059 14.1461 6.20419 14.1461H2.39162C1.86521 14.1461 1.43848 13.7193 1.43848 13.1929V9.38035C1.43848 8.85394 1.86521 8.42721 2.39162 8.42721H6.20419ZM13.0649 9.50743H9.5065V13.0658H13.0649V9.50743ZM6.0771 9.50743H2.5187V13.0658H6.0771V9.50743ZM6.20419 1.4375C6.73059 1.4375 7.15733 1.86424 7.15733 2.39064V6.20321C7.15733 6.72961 6.73059 7.15635 6.20419 7.15635H2.39162C1.86521 7.15635 1.43848 6.72961 1.43848 6.20321V2.39064C1.43848 1.86424 1.86521 1.4375 2.39162 1.4375H6.20419ZM13.192 1.4375C13.7184 1.4375 14.1452 1.86424 14.1452 2.39064V6.20321C14.1452 6.72961 13.7184 7.15635 13.192 7.15635H9.37946C8.85306 7.15635 8.42632 6.72961 8.42632 6.20321V2.39064C8.42632 1.86424 8.85306 1.4375 9.37946 1.4375H13.192ZM6.0771 2.51773H2.5187V6.07612H6.0771V2.51773ZM13.0649 2.51773H9.5065V6.07612H13.0649V2.51773Z" fill="white"/>
</g>
</svg>
