<svg width="16" height="16" viewBox="0 0 16 16" fill="none" xmlns="http://www.w3.org/2000/svg">
<g>
<path d="M13.5899 1.3584H5.19417C4.9204 1.3584 4.73788 1.54222 4.73788 1.90986V4.75907H1.90888C1.54384 4.75907 1.36133 4.94289 1.36133 5.21862V13.6744C1.36133 13.9501 1.54384 14.2258 1.90888 14.2258H10.3046C10.5784 14.2258 10.8522 13.9501 10.8522 13.6744V10.8251H13.6812C13.955 10.8251 14.2287 10.6413 14.2287 10.2737V1.90986C14.1375 1.54222 13.8637 1.3584 13.5899 1.3584ZM9.75709 13.031C9.75709 13.1229 9.66583 13.2148 9.57457 13.2148H2.54769C2.45643 13.2148 2.36517 13.1229 2.36517 13.031V5.9539C2.36517 5.86199 2.45643 5.77008 2.54769 5.77008H9.57457C9.66583 5.77008 9.75709 5.86199 9.75709 5.9539V13.031ZM13.1336 9.63031C13.1336 9.72222 13.0424 9.81413 12.9511 9.81413H10.9434C10.8522 9.81413 10.7609 9.72222 10.7609 9.63031V5.21862C10.7609 4.94289 10.5784 4.66716 10.2134 4.66716H5.92424C5.83298 4.66716 5.74172 4.57525 5.74172 4.48334V2.55323C5.74172 2.46132 5.83298 2.36941 5.92424 2.36941H12.9511C13.0424 2.36941 13.1336 2.46132 13.1336 2.55323V9.63031Z" fill="white"/>
</g>
</svg>
