<svg width="16" height="16" viewBox="0 0 16 16" fill="none" xmlns="http://www.w3.org/2000/svg">
<g clip-path="url(#clip0_7004_21093)">
<path d="M11.8792 2.5548C11.6798 2.90008 11.6152 3.28617 11.6689 3.65223L10.3127 4.35143C10.0412 4.49141 9.93459 4.82499 10.0746 5.0965C10.2146 5.368 10.5481 5.47462 10.8196 5.33464L12.1752 4.63571C12.272 4.7283 12.3813 4.81088 12.5024 4.88083C13.3169 5.35103 14.3583 5.07199 14.8285 4.25757C15.2987 3.44314 15.0196 2.40175 14.2052 1.93154C13.3908 1.46133 12.3494 1.74037 11.8792 2.5548Z" fill="white"/>
<path d="M10.1007 6.84899C10.2658 6.592 10.608 6.51755 10.865 6.68269L12.1488 7.50763C12.4389 7.27802 12.8057 7.14093 13.2045 7.14093C14.1449 7.14093 14.9073 7.90329 14.9073 8.8437C14.9073 9.78412 14.1449 10.5465 13.2045 10.5465C12.2641 10.5465 11.5017 9.78412 11.5017 8.8437C11.5017 8.7039 11.5186 8.56802 11.5503 8.438L10.267 7.6133C10.01 7.44817 9.93556 7.10597 10.1007 6.84899Z" fill="white"/>
<path d="M11.7262 13.5253C11.7262 11.5602 10.2795 9.94014 8.45664 9.94014H3.81251C1.98969 9.94014 0.542969 11.5602 0.542969 13.5253V14.2683C0.542969 14.607 0.818654 14.8817 1.15873 14.8817H11.1104C11.4505 14.8817 11.7262 14.607 11.7262 14.2683V13.5253Z" fill="white"/>
<path d="M9.01661 6.24093C9.01661 4.64477 7.72761 3.34845 6.13458 3.34845C4.54155 3.34845 3.25254 4.64477 3.25254 6.24093C3.25254 7.8371 4.54155 9.13342 6.13458 9.13342C7.72761 9.13342 9.01661 7.8371 9.01661 6.24093Z" fill="white"/>
</g>
<defs>
<clipPath id="clip0_7004_21093">
<rect width="15.2503" height="15.2503" fill="white" transform="translate(0.174805 0.66748)"/>
</clipPath>
</defs>
</svg>
