<svg width="16" height="16" viewBox="0 0 16 16" fill="none" xmlns="http://www.w3.org/2000/svg">
<g>
<path d="M13.0836 14.4641H10.1309C9.86326 14.4641 9.60643 14.3582 9.41656 14.1695C9.22669 13.9808 9.11919 13.7246 9.11754 13.4569V9.44085H6.44014V13.4569C6.43849 13.7246 6.33099 13.9808 6.14112 14.1695C5.95125 14.3582 5.69443 14.4641 5.42673 14.4641H2.47409C2.1655 14.4641 1.86955 14.3415 1.65134 14.1233C1.43313 13.9051 1.31055 13.6091 1.31055 13.3006V6.26301C1.31079 6.08184 1.35333 5.90324 1.43478 5.74142C1.51624 5.5796 1.63435 5.43903 1.77972 5.33092L7.14703 1.35236C7.34832 1.2016 7.59304 1.12012 7.84452 1.12012C8.09601 1.12012 8.34073 1.2016 8.54203 1.35236L13.803 5.32467C13.9427 5.43729 14.0549 5.5804 14.1308 5.74305C14.2067 5.90569 14.2443 6.08355 14.2409 6.26301V13.3006C14.2417 13.4531 14.2124 13.6042 14.1546 13.7454C14.0968 13.8865 14.0117 14.0148 13.9041 14.1229C13.7966 14.2311 13.6687 14.3169 13.5279 14.3754C13.3871 14.434 13.2361 14.4641 13.0836 14.4641ZM10.1935 13.4006H13.0961C13.1216 13.3991 13.1454 13.3878 13.1629 13.3692C13.1803 13.3506 13.19 13.3261 13.1899 13.3006V6.26301C13.1905 6.24835 13.1873 6.2338 13.1807 6.22068C13.1742 6.20757 13.1644 6.19631 13.1524 6.18794L7.87893 2.21563C7.86137 2.2038 7.84068 2.19748 7.8195 2.19748C7.79833 2.19748 7.77764 2.2038 7.76008 2.21563L2.39902 6.19419C2.38608 6.20358 2.37542 6.21577 2.36784 6.22985C2.36026 6.24393 2.35595 6.25954 2.35523 6.27552V13.3006C2.35523 13.3271 2.36578 13.3526 2.38455 13.3713C2.40332 13.3901 2.42878 13.4006 2.45532 13.4006H5.35792V9.33451C5.35956 9.08117 5.46093 8.83868 5.64007 8.65954C5.8192 8.4804 6.0617 8.37904 6.31503 8.3774H9.22389C9.3504 8.37657 9.47583 8.40068 9.59303 8.44833C9.71023 8.49599 9.81689 8.56626 9.90692 8.65513C9.99696 8.74401 10.0686 8.84975 10.1178 8.96632C10.167 9.08288 10.1927 9.208 10.1935 9.33451V13.4006Z" fill="white"/>
</g>
</svg>
