<svg width="16" height="16" viewBox="0 0 16 16" fill="none" xmlns="http://www.w3.org/2000/svg">
<g clip-path="url(#clip0_7004_21107)">
<path fill-rule="evenodd" clip-rule="evenodd" d="M1.60495 3.17699C1.60495 2.46223 2.18438 1.88281 2.89913 1.88281H12.6929C13.4076 1.88281 13.9871 2.46223 13.9871 3.17699V11.8951H14.7916C15.1393 11.8951 15.4212 12.177 15.4212 12.5247C15.4212 12.8725 15.1393 13.1543 14.7916 13.1543H0.800497C0.452779 13.1543 0.170898 12.8725 0.170898 12.5247C0.170898 12.177 0.452779 11.8951 0.800497 11.8951H1.60495V3.17699ZM2.7942 11.8951H12.7978V3.17699C12.7978 3.11903 12.7508 3.07205 12.6929 3.07205H2.89913C2.84118 3.07205 2.7942 3.11903 2.7942 3.17699V11.8951ZM6.65758 5.48046C6.81908 5.38652 7.01835 5.38554 7.18076 5.47791L9.97309 7.06589C10.1371 7.15916 10.2384 7.3333 10.2384 7.52196C10.2384 7.71063 10.1371 7.88477 9.97309 7.97804L7.18076 9.56602C7.01835 9.65838 6.81908 9.65741 6.65758 9.56347C6.49608 9.46952 6.39673 9.29679 6.39673 9.10995V5.93398C6.39673 5.74714 6.49608 5.57441 6.65758 5.48046ZM7.44606 8.208L8.65239 7.52196L7.44606 6.83593V8.208Z" fill="white"/>
</g>
<defs>
<clipPath id="clip0_7004_21107">
<rect width="15.2503" height="15.2503" fill="white" transform="translate(0.170898 0.166992)"/>
</clipPath>
</defs>
</svg>
