<svg width="16" height="16" viewBox="0 0 16 16" fill="none" xmlns="http://www.w3.org/2000/svg">
<path d="M13.8123 5.85347L8.50226 1.83777C8.30882 1.69665 8.07557 1.62061 7.83613 1.62061C7.59669 1.62061 7.36344 1.69665 7.17001 1.83777L1.75892 5.85979C1.6193 5.96233 1.5059 6.09644 1.42799 6.25116C1.35008 6.40588 1.30986 6.57683 1.31062 6.75006V13.8407C1.30805 14.0655 1.37413 14.2858 1.50004 14.4721C1.53939 14.5323 1.58605 14.5875 1.63895 14.6362C1.74071 14.7407 1.86249 14.8237 1.997 14.8801C2.13152 14.9365 2.27602 14.9652 2.42188 14.9646H5.39577C5.52559 14.9655 5.65425 14.9401 5.77397 14.8899C5.89369 14.8397 6.00198 14.7658 6.09229 14.6725C6.18259 14.5792 6.25305 14.4686 6.29937 14.3474C6.3457 14.2261 6.36694 14.0967 6.36181 13.967L6.32393 10.5763C6.3256 10.3882 6.4015 10.2083 6.53513 10.0759C6.66875 9.94347 6.84927 9.86917 7.03741 9.86917H8.50226C8.68981 9.86917 8.86968 9.94368 9.0023 10.0763C9.13492 10.2089 9.20942 10.3888 9.20942 10.5763V13.967C9.20942 14.2215 9.31054 14.4656 9.49052 14.6456C9.67051 14.8256 9.91462 14.9267 10.1692 14.9267H13.1809C13.4757 14.9267 13.7583 14.8096 13.9667 14.6012C14.1751 14.3928 14.2922 14.1101 14.2922 13.8154V6.73743C14.2878 6.56263 14.2421 6.39136 14.1587 6.23769C14.0752 6.08402 13.9565 5.95234 13.8123 5.85347Z" fill="white"/>
</svg>
