<svg width="16" height="16" viewBox="0 0 16 16" fill="none" xmlns="http://www.w3.org/2000/svg">
<path fill-rule="evenodd" clip-rule="evenodd" d="M13.192 8.92769C13.7184 8.92769 14.1452 9.35443 14.1452 9.88084V13.6934C14.1452 14.2198 13.7184 14.6465 13.192 14.6465H9.37946C8.85306 14.6465 8.42632 14.2198 8.42632 13.6934V9.88084C8.42632 9.35443 8.85306 8.92769 9.37946 8.92769H13.192ZM6.20419 8.92769C6.73059 8.92769 7.15733 9.35443 7.15733 9.88084V13.6934C7.15733 14.2198 6.73059 14.6465 6.20419 14.6465H2.39162C1.86521 14.6465 1.43848 14.2198 1.43848 13.6934V9.88084C1.43848 9.35443 1.86521 8.92769 2.39162 8.92769H6.20419ZM6.20419 1.93799C6.73059 1.93799 7.15733 2.36472 7.15733 2.89113V6.7037C7.15733 7.2301 6.73059 7.65684 6.20419 7.65684H2.39162C1.86521 7.65684 1.43848 7.2301 1.43848 6.7037V2.89113C1.43848 2.36472 1.86521 1.93799 2.39162 1.93799H6.20419ZM13.192 1.93799C13.7184 1.93799 14.1452 2.36472 14.1452 2.89113V6.7037C14.1452 7.2301 13.7184 7.65684 13.192 7.65684H9.37946C8.85306 7.65684 8.42632 7.2301 8.42632 6.7037V2.89113C8.42632 2.36472 8.85306 1.93799 9.37946 1.93799H13.192Z" fill="white"/>
</svg>
