<svg width="16" height="16" viewBox="0 0 16 16" fill="none" xmlns="http://www.w3.org/2000/svg">
<g clip-path="url(#clip0_7004_21081)">
<path fill-rule="evenodd" clip-rule="evenodd" d="M11.3155 11.7951V12.9675C11.3167 13.0421 11.3031 13.1163 11.2754 13.1856C11.2477 13.2549 11.2065 13.318 11.1541 13.3713C11.1018 13.4245 11.0394 13.4668 10.9705 13.4956C10.9017 13.5245 10.8278 13.5394 10.7531 13.5393C10.6014 13.5393 10.456 13.4791 10.3487 13.3718C10.2415 13.2646 10.1812 13.1191 10.1812 12.9675V11.7951C10.1812 11.3198 9.99241 10.8641 9.65636 10.528C9.32031 10.192 8.86455 10.0032 8.3893 10.0032H3.67124C3.19765 10.0057 2.74434 10.1956 2.41035 10.5314C2.07636 10.8671 1.88886 11.3215 1.88887 11.7951V12.9675C1.88887 13.1191 1.82863 13.2646 1.72138 13.3718C1.61413 13.4791 1.46865 13.5393 1.31698 13.5393C1.16531 13.5393 1.01985 13.4791 0.912603 13.3718C0.805354 13.2646 0.745117 13.1191 0.745117 12.9675V11.7951C0.745117 11.019 1.05339 10.2748 1.60215 9.726C2.15091 9.17724 2.89518 8.86893 3.67124 8.86893H8.3893C8.77392 8.86767 9.15499 8.94252 9.51057 9.08913C9.86616 9.23573 10.1892 9.45121 10.4612 9.72318C10.7332 9.99514 10.9487 10.3182 11.0953 10.6738C11.2419 11.0294 11.3167 11.4105 11.3155 11.7951Z" fill="white"/>
<path fill-rule="evenodd" clip-rule="evenodd" d="M6.00645 1.78711C5.42771 1.78711 4.86197 1.95873 4.38077 2.28026C3.89957 2.60179 3.52452 3.05879 3.30305 3.59348C3.08157 4.12816 3.02361 4.71649 3.13652 5.2841C3.24943 5.85172 3.52813 6.37312 3.93736 6.78235C4.34659 7.19158 4.86796 7.47028 5.43557 7.58319C6.00319 7.69609 6.59155 7.63813 7.12623 7.41666C7.66091 7.19519 8.11792 6.82014 8.43945 6.33894C8.76098 5.85773 8.9326 5.292 8.9326 4.71326C8.93009 3.93797 8.62098 3.19515 8.07277 2.64694C7.52455 2.09872 6.78173 1.78962 6.00645 1.78711ZM6.00645 6.50517C5.65204 6.50517 5.3056 6.40008 5.01092 6.20319C4.71625 6.00629 4.48655 5.72643 4.35093 5.399C4.2153 5.07157 4.17983 4.71128 4.24897 4.36369C4.31812 4.01609 4.48879 3.69678 4.73939 3.44618C4.98999 3.19557 5.30928 3.02493 5.65687 2.95579C6.00447 2.88665 6.36476 2.92212 6.69219 3.05774C7.01961 3.19337 7.29947 3.42306 7.49637 3.71774C7.69327 4.01242 7.79836 4.35886 7.79836 4.71326C7.79836 5.1885 7.60955 5.64427 7.2735 5.98032C6.93745 6.31636 6.48169 6.50517 6.00645 6.50517Z" fill="white"/>
<path fill-rule="evenodd" clip-rule="evenodd" d="M14.8516 11.7951V12.9675C14.8529 13.0421 14.8393 13.1163 14.8116 13.1856C14.7839 13.2549 14.7427 13.318 14.6903 13.3713C14.638 13.4245 14.5755 13.4668 14.5067 13.4956C14.4378 13.5245 14.3639 13.5394 14.2892 13.5393C14.1376 13.5393 13.9921 13.4791 13.8849 13.3718C13.7776 13.2646 13.7174 13.1191 13.7174 12.9675V11.7951C13.7189 11.3975 13.5875 11.0107 13.344 10.6964C13.1005 10.3821 12.7588 10.1582 12.3734 10.0604C12.2269 10.0222 12.1015 9.9276 12.0247 9.79717C11.9479 9.66675 11.9259 9.51119 11.9636 9.36458C11.9831 9.29254 12.0167 9.22509 12.0625 9.16618C12.1084 9.10727 12.1654 9.05806 12.2305 9.02144C12.3158 8.96749 12.4155 8.9409 12.5164 8.9452C12.5636 8.93595 12.6122 8.93595 12.6594 8.9452C13.2907 9.10703 13.8495 9.47561 14.2469 9.99215C14.6442 10.5087 14.8571 11.1434 14.8516 11.7951Z" fill="white"/>
<path fill-rule="evenodd" clip-rule="evenodd" d="M12.4973 4.72279C12.5028 5.37693 12.2889 6.01401 11.8897 6.53233C11.4906 7.05064 10.9294 7.42029 10.2956 7.58221C10.2238 7.60148 10.149 7.60634 10.0754 7.59653C10.0018 7.58671 9.93083 7.56238 9.86665 7.525C9.73831 7.44534 9.64603 7.31886 9.60931 7.17234C9.59005 7.10061 9.58519 7.02579 9.595 6.95218C9.60482 6.87856 9.62912 6.80762 9.6665 6.74344C9.7469 6.61579 9.87306 6.5237 10.0192 6.48608C10.4035 6.38657 10.744 6.1622 10.987 5.84822C11.2301 5.53423 11.362 5.14844 11.362 4.75138C11.362 4.35432 11.2301 3.9685 10.987 3.65452C10.744 3.34054 10.4035 3.11617 10.0192 3.01666C9.87236 2.97494 9.74653 2.87972 9.6665 2.74978C9.62861 2.68581 9.60401 2.61483 9.59419 2.54113C9.58436 2.46744 9.58951 2.39252 9.60931 2.32085C9.62712 2.24869 9.65907 2.18077 9.7033 2.12102C9.74752 2.06127 9.80312 2.0109 9.86694 1.97279C9.93076 1.93468 10.0015 1.90957 10.0751 1.89897C10.1487 1.88836 10.2236 1.89247 10.2956 1.91101C10.9215 2.07091 11.4769 2.43343 11.8751 2.94205C12.2734 3.45067 12.4922 4.07681 12.4973 4.72279Z" fill="white"/>
</g>
<defs>
<clipPath id="clip0_7004_21081">
<rect width="15.2503" height="15.2503" fill="white" transform="translate(0.172852 0.166992)"/>
</clipPath>
</defs>
</svg>
