<svg width="16" height="16" viewBox="0 0 16 16" fill="none" xmlns="http://www.w3.org/2000/svg">
<g clip-path="url(#clip0_7004_21105)">
<path fill-rule="evenodd" clip-rule="evenodd" d="M11.5684 1.68238C11.4271 1.07915 10.8886 0.643555 10.2593 0.643555H6.32433L6.2245 0.647301L6.12074 0.659128L6.01869 0.678951C5.41546 0.820269 4.97987 1.3587 4.97987 1.98801V2.15198H3.86496L3.75055 2.15499C2.72776 2.20895 1.89746 2.98177 1.89746 3.95552V13.1372L1.90085 13.2445C1.96147 14.2027 2.82878 14.9407 3.86496 14.9407H12.7187L12.8331 14.9377C13.8559 14.8837 14.6862 14.1109 14.6862 13.1372V3.95552L14.6828 3.84817C14.6222 2.89002 13.7549 2.15198 12.7187 2.15198H11.6038V1.98801L11.6 1.88818L11.5882 1.78442L11.5684 1.68238ZM11.6038 3.13573V3.29967C11.6038 3.92899 11.1682 4.46741 10.5649 4.60873L10.4629 4.62856L10.3591 4.64038L10.2593 4.64413H6.32433C5.69501 4.64413 5.15659 4.20854 5.01527 3.60531L4.99544 3.50326L4.98362 3.3995L4.97987 3.29967V3.13573H3.86496C3.34226 3.13573 2.93205 3.47303 2.88559 3.87871L2.88121 3.95552V13.1372C2.88121 13.5503 3.26067 13.912 3.76833 13.9531L3.86496 13.9569H12.7187C13.2414 13.9569 13.6516 13.6196 13.698 13.214L13.7024 13.1372V3.95552C13.7024 3.54233 13.323 3.18073 12.8153 3.13961L12.7187 3.13573H11.6038ZM6.52087 1.39776H10.0628C10.4036 1.39776 10.7006 1.6164 10.8084 1.93497L10.8313 2.01663L10.8451 2.10081L10.8498 2.18479L10.8494 3.11568L10.8425 3.20888L10.8263 3.29394L10.7981 3.38402C10.7152 3.60106 10.5399 3.76942 10.3191 3.84619L10.2343 3.8706L10.1457 3.8854L10.0628 3.88992L6.50811 3.88951L6.41491 3.88264L6.32986 3.86643L6.23978 3.83824C6.02273 3.75532 5.85437 3.58003 5.7776 3.35929L5.7532 3.27448L5.7384 3.18581L5.73387 3.1029L5.73429 2.172L5.74115 2.0788L5.75736 1.99374L5.78555 1.90367C5.86848 1.68662 6.04377 1.51826 6.2645 1.44149L6.34932 1.41708L6.43798 1.40228L6.52087 1.39776Z" fill="white"/>
<path d="M4.83224 8.24653C5.19461 8.24653 5.48836 7.95278 5.48836 7.59041C5.48836 7.22805 5.19461 6.93429 4.83224 6.93429C4.46988 6.93429 4.17612 7.22805 4.17612 7.59041C4.17612 7.95278 4.46988 8.24653 4.83224 8.24653Z" fill="white"/>
<path d="M6.80063 6.99033C6.4712 6.99033 6.20415 7.25738 6.20415 7.58681C6.20415 7.91623 6.4712 8.18328 6.80063 8.18328H11.811C12.1404 8.18328 12.4075 7.91623 12.4075 7.58681C12.4075 7.25738 12.1404 6.99033 11.811 6.99033H6.80063Z" fill="white"/>
<path d="M6.20418 10.9582C6.20418 10.6288 6.47123 10.3617 6.80065 10.3617H11.811C12.1404 10.3617 12.4075 10.6288 12.4075 10.9582C12.4075 11.2876 12.1404 11.5547 11.811 11.5547H6.80065C6.47123 11.5547 6.20418 11.2876 6.20418 10.9582Z" fill="white"/>
<path d="M4.83227 11.6179C5.19463 11.6179 5.48839 11.3242 5.48839 10.9618C5.48839 10.5994 5.19463 10.3057 4.83227 10.3057C4.4699 10.3057 4.17615 10.5994 4.17615 10.9618C4.17615 11.3242 4.4699 11.6179 4.83227 11.6179Z" fill="white"/>
</g>
<defs>
<clipPath id="clip0_7004_21105">
<rect width="15.2503" height="15.2503" fill="white" transform="translate(0.666992 0.166992)"/>
</clipPath>
</defs>
</svg>
