<svg width="16" height="16" viewBox="0 0 16 16" fill="none" xmlns="http://www.w3.org/2000/svg">
<g clip-path="url(#clip0_7004_21059)">
<path d="M8.29505 1.14404C4.36334 1.14404 1.14648 4.3609 1.14648 8.29261C1.14648 12.2243 4.36334 15.4412 8.29505 15.4412C8.92055 15.4412 9.45669 14.905 9.45669 14.2795C9.45669 14.0115 9.36733 13.654 9.18862 13.4753C9.0099 13.2966 8.92055 13.0285 8.92055 12.6711C8.92055 12.0456 9.45669 11.5095 10.0822 11.5095H11.5119C13.7458 11.5095 15.4436 9.72232 15.4436 7.57775C15.4436 4.00347 12.2268 1.14404 8.29505 1.14404ZM3.91655 8.29261C3.29105 8.29261 2.75491 7.75646 2.75491 7.13096C2.75491 6.50547 3.29105 5.96932 3.91655 5.96932C4.54205 5.96932 5.07819 6.50547 5.07819 7.13096C5.07819 7.75646 4.54205 8.29261 3.91655 8.29261ZM6.32919 5.07575C5.61434 5.07575 5.07819 4.53961 5.07819 3.91411C5.07819 3.28861 5.61434 2.75247 6.32919 2.75247C7.04405 2.75247 7.49083 3.28861 7.49083 3.91411C7.49083 4.53961 6.95469 5.07575 6.32919 5.07575ZM10.2609 5.07575C9.6354 5.07575 9.09926 4.53961 9.09926 3.91411C9.09926 3.28861 9.6354 2.75247 10.2609 2.75247C10.8864 2.75247 11.4225 3.28861 11.4225 3.91411C11.4225 4.53961 10.9758 5.07575 10.2609 5.07575ZM12.6735 8.29261C12.048 8.29261 11.5119 7.75646 11.5119 7.13096C11.5119 6.50547 12.048 5.96932 12.6735 5.96932C13.299 5.96932 13.8352 6.50547 13.8352 7.13096C13.8352 7.75646 13.299 8.29261 12.6735 8.29261Z" fill="white"/>
</g>
<defs>
<clipPath id="clip0_7004_21059">
<rect width="15.2503" height="15.2503" fill="white" transform="translate(0.669922 0.66748)"/>
</clipPath>
</defs>
</svg>
