<svg width="16" height="16" viewBox="0 0 16 16" fill="none" xmlns="http://www.w3.org/2000/svg">
<g clip-path="url(#clip0_7004_21051)">
<path fill-rule="evenodd" clip-rule="evenodd" d="M9.86333 1.6974C9.89745 1.42449 9.74756 1.16176 9.49527 1.05225C9.24298 0.942731 8.9487 1.01265 8.77263 1.22393L2.10064 9.23032C1.94674 9.415 1.91357 9.67203 2.01553 9.88973C2.11749 10.1074 2.33619 10.2465 2.57658 10.2465H7.87957L7.29942 14.8877C7.2653 15.1606 7.41519 15.4233 7.66748 15.5328C7.91976 15.6424 8.21405 15.5724 8.39012 15.3612L15.0621 7.35477C15.216 7.17009 15.2492 6.91306 15.1472 6.69536C15.0453 6.47767 14.8266 6.3386 14.5862 6.3386H9.28318L9.86333 1.6974Z" fill="white"/>
</g>
<defs>
<clipPath id="clip0_7004_21051">
<rect width="15.2503" height="15.2503" fill="white" transform="translate(0.668945 0.66748)"/>
</clipPath>
</defs>
</svg>
