<svg width="16" height="16" viewBox="0 0 16 16" fill="none" xmlns="http://www.w3.org/2000/svg">
<g clip-path="url(#clip0_7004_21095)">
<path fill-rule="evenodd" clip-rule="evenodd" d="M5.53672 2.91513C5.53672 2.09043 6.20527 1.42188 7.02997 1.42188H9.57168C10.3964 1.42188 11.0649 2.09043 11.0649 2.91513V5.45684C11.0649 6.28154 10.3964 6.9501 9.57168 6.9501H8.80918V8.76105H12.4311C13.2383 8.76105 13.8926 9.41538 13.8926 10.2225V10.6991V11.7107C14.6186 11.9289 15.1476 12.6025 15.1476 13.3997C15.1476 14.3735 14.3581 15.163 13.3843 15.163C12.4104 15.163 11.6209 14.3735 11.6209 13.3997C11.6209 12.6025 12.1499 11.9289 12.8759 11.7107V10.6991V10.2225C12.8759 9.97688 12.6768 9.77774 12.4311 9.77774H8.80918V11.7107C9.53521 11.9289 10.0641 12.6025 10.0641 13.3997C10.0641 14.3735 9.27469 15.163 8.30084 15.163C7.32699 15.163 6.53752 14.3735 6.53752 13.3997C6.53752 12.6025 7.06645 11.9289 7.79249 11.7107V9.77774H4.17055C3.9249 9.77774 3.72575 9.97688 3.72575 10.2225V11.7107C4.45179 11.9289 4.98073 12.6025 4.98073 13.3997C4.98073 14.3735 4.19126 15.163 3.21741 15.163C2.24356 15.163 1.4541 14.3735 1.4541 13.3997C1.4541 12.6025 1.98303 11.9289 2.70907 11.7107V10.2225C2.70907 9.41538 3.3634 8.76105 4.17055 8.76105H7.79249V6.9501H7.02997C6.20527 6.9501 5.53672 6.28154 5.53672 5.45684V2.91513Z" fill="white"/>
</g>
<defs>
<clipPath id="clip0_7004_21095">
<rect width="15.2503" height="15.2503" fill="white" transform="translate(0.675781 0.66748)"/>
</clipPath>
</defs>
</svg>
