<svg width="16" height="16" viewBox="0 0 16 16" fill="none" xmlns="http://www.w3.org/2000/svg">
<g clip-path="url(#clip0_7004_21112)">
<path fill-rule="evenodd" clip-rule="evenodd" d="M14.7921 12.3913H13.9819V3.67957C13.9819 2.96472 13.41 2.3833 12.6952 2.3833H2.89688C2.18203 2.3833 1.60061 2.96472 1.60061 3.67957V12.3913H0.799972C0.44731 12.3913 0.170898 12.6772 0.170898 13.0204C0.170898 13.373 0.44731 13.6494 0.799972 13.6494H14.7921C15.1352 13.6494 15.4212 13.373 15.4212 13.0204C15.4212 12.6772 15.1352 12.3913 14.7921 12.3913ZM9.9692 8.47388L7.17649 10.0656C7.01446 10.1609 6.8143 10.1609 6.65226 10.0656C6.49023 9.97031 6.39491 9.79874 6.39491 9.60812V6.43415C6.39491 6.24352 6.49023 6.07196 6.65226 5.97665C6.8143 5.88133 7.01446 5.88133 7.17649 5.97665L9.9692 7.56839C10.1312 7.65417 10.2361 7.83527 10.2361 8.01637C10.2361 8.207 10.1312 8.38809 9.9692 8.47388Z" fill="white"/>
</g>
<defs>
<clipPath id="clip0_7004_21112">
<rect width="15.2503" height="15.2503" fill="white" transform="translate(0.170898 0.66748)"/>
</clipPath>
</defs>
</svg>
