<svg width="16" height="16" viewBox="0 0 16 16" fill="none" xmlns="http://www.w3.org/2000/svg">
<g clip-path="url(#clip0_7004_21075)">
<path fill-rule="evenodd" clip-rule="evenodd" d="M3.0313 11.152H1.29832C0.676199 11.152 0.171875 10.7253 0.171875 10.1989V3.52687C0.171875 3.00047 0.676199 2.57373 1.29832 2.57373H11.4363C12.0584 2.57373 12.5627 3.00047 12.5627 3.52687L12.5627 5.43316H14.2957C14.9178 5.43316 15.4221 5.91323 15.4221 6.50544V12.9391C15.4221 13.5314 14.9178 14.0114 14.2957 14.0114H4.15774C3.53562 14.0114 3.0313 13.5314 3.0313 12.9391V11.152ZM3.98444 5.24253C3.35276 5.24253 2.84067 5.75461 2.84067 6.3863V10.0082H1.31565V3.7175H11.4189L11.4189 5.24253H3.98444ZM9.22672 11.6286C10.2795 11.6286 11.133 10.7751 11.133 9.72229C11.133 8.66948 10.2795 7.81601 9.22672 7.81601C8.17391 7.81601 7.32044 8.66948 7.32044 9.72229C7.32044 10.7751 8.17391 11.6286 9.22672 11.6286Z" fill="white"/>
</g>
<defs>
<clipPath id="clip0_7004_21075">
<rect width="15.2503" height="15.2503" fill="white" transform="translate(0.171875 0.66748)"/>
</clipPath>
</defs>
</svg>
