<svg width="16" height="16" viewBox="0 0 16 16" fill="none" xmlns="http://www.w3.org/2000/svg">
<g clip-path="url(#clip0_7004_21103)">
<path fill-rule="evenodd" clip-rule="evenodd" d="M6.32436 1.09619H10.2593C10.9334 1.09619 11.5099 1.56277 11.6612 2.20859L11.662 2.21214L11.6832 2.32154L11.6956 2.43255L11.6992 2.53596L11.6992 2.69991H12.7187C13.7549 2.69991 14.6222 3.43795 14.6828 4.3961L14.6862 4.50344V13.6851C14.6862 14.6588 13.8559 15.4317 12.8331 15.4856L12.7187 15.4886H3.86496C2.82878 15.4886 1.96147 14.7506 1.90085 13.7924L1.89746 13.6851V4.50344C1.89746 3.52969 2.72776 2.75688 3.75055 2.70292L3.86496 2.69991H4.88458L4.88459 2.53596C4.88459 1.86186 5.35117 1.2854 5.99698 1.1341L6.00054 1.13327L6.10994 1.11209L6.22094 1.09973L6.32436 1.09619ZM6.5235 2.04103L6.44849 2.04512L6.37044 2.05815L6.29347 2.0803C6.10088 2.14804 5.94848 2.29469 5.87564 2.48298L5.85 2.56493L5.83584 2.63921L5.82963 2.72348L5.82922 3.64827L5.83331 3.72329L5.84634 3.80133L5.86849 3.87831C5.93623 4.07089 6.08288 4.2233 6.27117 4.29614L6.35312 4.32178L6.4274 4.33594L6.51166 4.34214L10.0602 4.34256L10.1352 4.33846L10.2133 4.32544L10.2902 4.30328C10.4828 4.23555 10.6352 4.08889 10.7081 3.90061L10.7337 3.81866L10.7479 3.74437L10.7541 3.66011L10.7545 2.73533L10.7503 2.65916L10.7381 2.58527L10.7173 2.51116C10.6218 2.23182 10.3612 2.04103 10.0628 2.04103H6.5235ZM5.48836 8.09069C5.48836 8.45306 5.19461 8.74681 4.83224 8.74681C4.46988 8.74681 4.17612 8.45306 4.17612 8.09069C4.17612 7.72833 4.46988 7.43457 4.83224 7.43457C5.19461 7.43457 5.48836 7.72833 5.48836 8.09069ZM6.20415 8.08709C6.20415 7.75767 6.4712 7.49062 6.80063 7.49062H11.811C12.1404 7.49062 12.4075 7.75767 12.4075 8.08709C12.4075 8.41651 12.1404 8.68356 11.811 8.68356H6.80063C6.4712 8.68356 6.20415 8.41651 6.20415 8.08709ZM6.80065 10.862C6.47123 10.862 6.20418 11.1291 6.20418 11.4585C6.20418 11.7879 6.47123 12.055 6.80065 12.055H11.811C12.1404 12.055 12.4075 11.7879 12.4075 11.4585C12.4075 11.1291 12.1404 10.862 11.811 10.862H6.80065ZM5.48839 11.4621C5.48839 11.8245 5.19463 12.1182 4.83227 12.1182C4.4699 12.1182 4.17615 11.8245 4.17615 11.4621C4.17615 11.0997 4.4699 10.806 4.83227 10.806C5.19463 10.806 5.48839 11.0997 5.48839 11.4621Z" fill="white"/>
</g>
<defs>
<clipPath id="clip0_7004_21103">
<rect width="15.2503" height="15.2503" fill="white" transform="translate(0.666992 0.66748)"/>
</clipPath>
</defs>
</svg>
