<svg width="16" height="16" viewBox="0 0 16 16" fill="none" xmlns="http://www.w3.org/2000/svg">
<g clip-path="url(#clip0_7004_21069)">
<path d="M4.38721 8.24116C4.96626 8.24116 5.43567 7.77175 5.43567 7.1927C5.43567 6.61366 4.96626 6.14425 4.38721 6.14425C3.80817 6.14425 3.33876 6.61366 3.33876 7.1927C3.33876 7.77175 3.80817 8.24116 4.38721 8.24116Z" fill="white"/>
<path d="M7.53253 4.33328C7.53253 4.91233 7.06312 5.38173 6.48408 5.38173C5.90503 5.38173 5.43562 4.91233 5.43562 4.33328C5.43562 3.75423 5.90503 3.28482 6.48408 3.28482C7.06312 3.28482 7.53253 3.75423 7.53253 4.33328Z" fill="white"/>
<path d="M10.1061 5.38173C10.6851 5.38173 11.1545 4.91233 11.1545 4.33328C11.1545 3.75423 10.6851 3.28482 10.1061 3.28482C9.52702 3.28482 9.05761 3.75423 9.05761 4.33328C9.05761 4.91233 9.52702 5.38173 10.1061 5.38173Z" fill="white"/>
<path d="M13.2514 7.1927C13.2514 7.77175 12.782 8.24116 12.2029 8.24116C11.6239 8.24116 11.1545 7.77175 11.1545 7.1927C11.1545 6.61366 11.6239 6.14425 12.2029 6.14425C12.782 6.14425 13.2514 6.61366 13.2514 7.1927Z" fill="white"/>
<path fill-rule="evenodd" clip-rule="evenodd" d="M8.29505 14.9407C4.38717 14.9407 1.14648 11.7 1.14648 7.79212C1.14648 3.88424 4.38717 0.643555 8.29505 0.643555C12.2029 0.643555 15.4436 3.50298 15.4436 7.0296C15.4436 9.31714 13.5373 11.2234 11.2498 11.2234H9.91539C9.62945 11.2234 9.3435 11.5094 9.3435 11.7953C9.3435 11.9859 9.43882 12.0813 9.53413 12.1766C9.82008 12.4625 9.91539 12.8438 9.91539 13.225C9.91539 14.1782 9.15287 14.9407 8.29505 14.9407ZM8.29505 1.69201C4.95905 1.69201 2.19494 4.45612 2.19494 7.79212C2.19494 11.1281 4.95905 13.8922 8.29505 13.8922C8.58099 13.8922 8.86693 13.6063 8.86693 13.3203C8.86693 13.1297 8.77162 13.0344 8.6763 12.9391C8.39036 12.6531 8.29505 12.2719 8.29505 11.8906C8.29505 11.0328 9.05756 10.2703 9.91539 10.2703H11.2498C12.9654 10.2703 14.3952 8.84057 14.3952 7.12492C14.3952 4.07487 11.631 1.69201 8.29505 1.69201Z" fill="white"/>
</g>
<defs>
<clipPath id="clip0_7004_21069">
<rect width="15.2503" height="15.2503" fill="white" transform="translate(0.669922 0.166992)"/>
</clipPath>
</defs>
</svg>
