<svg width="16" height="16" viewBox="0 0 16 16" fill="none" xmlns="http://www.w3.org/2000/svg">
<g clip-path="url(#clip0_7004_21083)">
<path d="M9.90493 2.4142C10.6354 2.01579 11.5259 2.54446 11.5259 3.37647V13.2086C11.5259 14.0406 10.6354 14.5692 9.90493 14.1708L3.75871 10.8184H2.48382C1.61525 10.8184 0.911133 10.1142 0.911133 9.24567V7.33938C0.911133 6.47082 1.61525 5.7667 2.48382 5.7667H3.75868L9.90493 2.4142Z" fill="white"/>
<path d="M14.8851 4.72835C15.0988 4.99553 15.0555 5.3854 14.7883 5.59915L13.1997 6.87001C12.9326 7.08376 12.5427 7.04044 12.3289 6.77325C12.1152 6.50607 12.1585 6.11619 12.4257 5.90245L14.0143 4.63159C14.2815 4.41784 14.6713 4.46116 14.8851 4.72835Z" fill="white"/>
<path d="M12.495 8.30841C12.495 7.96624 12.7723 7.68887 13.1145 7.68887H15.0526C15.3947 7.68887 15.6721 7.96624 15.6721 8.30841C15.6721 8.65057 15.3947 8.92795 15.0526 8.92795H13.1145C12.7723 8.92795 12.495 8.65057 12.495 8.30841Z" fill="white"/>
<path d="M13.1997 10.0327C12.9326 9.819 12.5427 9.86232 12.3289 10.1295C12.1152 10.3967 12.1585 10.7866 12.4257 11.0003L14.0143 12.2712C14.2815 12.4849 14.6713 12.4416 14.8851 12.1744C15.0988 11.9072 15.0555 11.5174 14.7883 11.3036L13.1997 10.0327Z" fill="white"/>
</g>
<defs>
<clipPath id="clip0_7004_21083">
<rect width="15.2503" height="15.2503" fill="white" transform="translate(0.672852 0.66748)"/>
</clipPath>
</defs>
</svg>
